PathFileType	4	(X/Y/Z)	imu.trc
DataRate	CameraRate	NumFrames	NumMarkers	Units	OrigDataRate	OrigDataStartFrame	OrigNumFrames
60	60	112	2	mm	60	827	1033
Frame#	Time	thigh calf
X1	Y1	Z1	X2	Y2	Z2

827	8.26009	2.91004	0.154275	1.77134	3.02598	6.24344	1.03931	
828	8.27009	2.91004	0.154275	1.77134	3.032	6.25051	1.02352	
829	8.28009	2.91004	0.154275	1.77134	3.03889	6.25992	1.0076	
830	8.29009	2.91004	0.154275	1.77134	3.05626	0.00422682	0.975762	
831	8.30009	2.91004	0.154275	1.77134	3.06618	0.0227883	0.958719	
832	8.31009	2.91004	0.154275	1.77134	3.07624	0.043527	0.939104	
833	8.3201	2.91004	0.154275	1.77134	3.08544	0.0644153	0.917296	
834	8.3301	2.91004	0.154275	1.77134	3.09295	0.0836129	0.893955	
835	8.3401	2.91004	0.154275	1.77134	3.09963	0.110045	0.85044	
836	8.3501	2.91004	0.154275	1.77134	3.10135	0.119935	0.833979	
837	8.3601	2.91258	0.138839	1.79068	3.10518	0.130555	0.819348	
838	8.3701	2.89999	0.13457	1.88263	3.11179	0.141805	0.80387	
839	8.3801	2.88282	0.104272	1.99782	3.12068	0.152607	0.788765	
840	8.3901	2.88098	0.0976375	2.03456	3.14207	0.173901	0.758536	
841	8.4001	2.87978	0.10069	2.03551	3.1512	0.186178	0.744552	
842	8.4101	2.87845	0.105476	2.03553	3.15897	0.200113	0.733271	
843	8.4201	2.87762	0.110971	2.03464	3.16479	0.213691	0.726315	
844	8.4301	2.8774	0.116474	2.03293	3.16888	0.226137	0.722983	
845	8.4401	2.8777	0.121719	2.03045	3.17207	0.237539	0.721599	
846	8.4501	2.87831	0.12638	2.02724	3.174	0.255256	0.728744	
847	8.4601	2.87912	0.130151	2.02333	3.17221	0.260632	0.737312	
848	8.4701	2.8799	0.132922	2.0188	3.16827	0.263605	0.748841	
849	8.4801	2.88047	0.134813	2.01388	3.16222	0.26478	0.763453	
850	8.4901	2.88052	0.136339	2.00864	3.15366	0.263714	0.781006	
851	8.5001	2.8798	0.138155	2.00316	3.14365	0.261065	0.801721	
852	8.5101	2.87832	0.140946	1.99783	3.12226	0.253485	0.849087	
853	8.5201	2.87611	0.145547	1.99302	3.11104	0.248822	0.875815	
854	8.5301	2.87309	0.152906	1.98886	3.0995	0.243259	0.904868	
855	8.5401	2.86934	0.162935	1.98543	3.08803	0.236932	0.936445	
856	8.5501	2.86495	0.17463	1.98254	3.07699	0.230306	0.970178	
857	8.5601	2.8601	0.186235	1.97997	3.05807	0.21831	1.04274	
858	8.5701	2.85515	0.195898	1.9774	3.05126	0.214712	1.08097	
859	8.5801	2.85039	0.202517	1.97442	3.0458	0.21275	1.12098	
860	8.5901	2.84609	0.205459	1.97036	3.04115	0.21211	1.16257	
861	8.6001	2.8423	0.207091	1.96534	3.03329	0.213997	1.24765	
862	8.6101	2.83933	0.209027	1.9598	3.02936	0.216098	1.29148	
863	8.6201	2.83723	0.211616	1.95404	3.02523	0.218575	1.33642	
864	8.6301	2.83578	0.214895	1.94825	3.02119	0.221597	1.38159	
865	8.6401	2.83403	0.219142	1.94292	3.01725	0.225541	1.42739	
866	8.6501	2.83122	0.224617	1.93809	3.01327	0.231131	1.47395	
867	8.6601	2.82792	0.23112	1.93197	3.00452	0.248559	1.56535	
868	8.6701	2.82618	0.234434	1.92774	2.99891	0.2592	1.61037	
869	8.6801	2.82162	0.24422	1.90763	2.99239	0.270638	1.65463	
870	8.6901	2.82076	0.247408	1.89861	2.98543	0.28226	1.69783	
871	8.7001	2.81981	0.252453	1.88108	2.97073	0.304375	1.77772	
872	8.7101	2.81832	0.253889	1.86784	2.9625	0.313693	1.81441	
873	8.7201	2.81613	0.251781	1.85923	2.95411	0.321252	1.84808	
874	8.7301	2.81377	0.248211	1.85261	2.94617	0.326948	1.87875	
875	8.7401	2.81343	0.245234	1.84564	2.93949	0.330674	1.9059	
876	8.7501	2.81628	0.244732	1.83801	2.93381	0.333551	1.92847	
877	8.76011	2.82173	0.247185	1.8295	2.92584	0.340675	1.96155	
878	8.77011	2.82837	0.251413	1.81941	2.92234	0.344901	1.97196	
879	8.78011	2.83474	0.257025	1.8075	2.91882	0.348598	1.97789	
880	8.79011	2.83918	0.26439	1.79442	2.91566	0.351066	1.97814	
881	8.80011	2.84136	0.273599	1.78161	2.91367	0.35195	1.97383	
882	8.81011	2.84091	0.28495	1.77199	2.91351	0.348573	1.95642	
883	8.82011	2.83821	0.299326	1.76741	2.91491	0.341795	1.94749	
884	8.83011	2.83623	0.307607	1.76698	2.91625	0.332748	1.94262	
885	8.84011	2.83382	0.317514	1.76732	2.91813	0.323766	1.94175	
886	8.85011	2.82498	0.356221	1.77035	2.92213	0.314156	1.93844	
887	8.86011	2.82135	0.376323	1.77012	2.94107	0.285009	1.92155	
888	8.87011	2.81862	0.394918	1.76826	2.9552	0.267333	1.90948	
889	8.88011	2.81679	0.410542	1.76549	2.96775	0.249758	1.89675	
890	8.89011	2.81579	0.422755	1.76219	2.977	0.23402	1.88348	
891	8.90011	2.81533	0.431772	1.7585	2.98093	0.22173	1.87064	
892	8.91011	2.81511	0.437985	1.75441	2.97182	0.209442	1.84969	
893	8.92011	2.81523	0.442112	1.75012	2.96358	0.210068	1.84083	
894	8.93011	2.81585	0.445995	1.74606	2.95883	0.21409	1.83211	
895	8.94011	2.81666	0.450963	1.74237	2.95689	0.219416	1.82353	
896	8.95011	2.81758	0.456803	1.73895	2.95638	0.224289	1.81535	
897	8.96011	2.81863	0.462988	1.73556	2.95542	0.227617	1.80812	
898	8.97011	2.81965	0.469468	1.73189	2.94975	0.236449	1.79602	
899	8.98011	2.82059	0.476745	1.7275	2.94619	0.243911	1.7902	
900	8.99011	2.82105	0.483491	1.72307	2.94234	0.252443	1.78425	
901	9.00011	2.82122	0.490806	1.71815	2.93843	0.259954	1.77798	
902	9.01011	2.82114	0.498215	1.7133	2.93508	0.265314	1.77139	
903	9.02011	2.821	0.505731	1.70887	2.93043	0.273652	1.75687	
904	9.03011	2.82094	0.513368	1.70487	2.92875	0.278449	1.74935	
905	9.04011	2.8213	0.521082	1.70076	2.9271	0.284118	1.74164	
906	9.05011	2.82207	0.528374	1.69621	2.92547	0.290634	1.73392	
907	9.06011	2.82322	0.534963	1.69099	2.92397	0.297594	1.7261	
908	9.07011	2.82466	0.541011	1.68511	2.92192	0.310522	1.71037	
909	9.08011	2.82636	0.546983	1.67868	2.92152	0.315901	1.70212	
910	9.09011	2.82837	0.553458	1.67167	2.92154	0.320038	1.69368	
911	9.10011	2.83071	0.560181	1.66411	2.9218	0.32357	1.68472	
912	9.11011	2.83333	0.566733	1.65606	2.92224	0.326586	1.67548	
913	9.12011	2.83598	0.573115	1.64785	2.92342	0.331659	1.65603	
914	9.13011	2.83724	0.576348	1.64378	2.92389	0.334473	1.646	
915	9.14011	2.84053	0.58611	1.63208	2.92437	0.337971	1.63475	
916	9.15011	2.84224	0.593115	1.62465	2.92482	0.341165	1.62485	
917	9.16011	2.84352	0.600858	1.61767	2.92546	0.344632	1.61385	
918	9.17011	2.84467	0.609267	1.61128	2.9278	0.350305	1.59098	
919	9.18011	2.84587	0.618778	1.60594	2.92939	0.35263	1.579	
920	9.19011	2.8471	0.628721	1.60138	2.931	0.354667	1.56694	
921	9.20012	2.84811	0.637946	1.59763	2.931	0.354667	1.56694	
922	9.21012	2.84848	0.646312	1.59496	2.93441	0.358583	1.54173	
923	9.22012	2.84842	0.653912	1.59333	2.93646	0.360509	1.52867	
924	9.23012	2.84826	0.660421	1.59295	2.93865	0.362304	1.5153	
925	9.24012	2.848	0.666501	1.59394	2.94271	0.364986	1.48996	
926	9.25012	2.84763	0.67263	1.59672	2.94448	0.365683	1.47812	
927	9.26012	2.84696	0.679069	1.60143	2.94604	0.366136	1.46675	
928	9.27012	2.84608	0.685643	1.60747	2.94765	0.366679	1.45581	
929	9.28012	2.84562	0.688756	1.61087	2.95094	0.368916	1.43525	
930	9.29012	2.84408	0.696531	1.62347	2.95258	0.37073	1.42522	
931	9.30012	2.84286	0.699342	1.63458	2.95407	0.373071	1.41537	
932	9.31012	2.84194	0.698903	1.64739	2.95541	0.375679	1.40574	
933	9.32012	2.84157	0.693762	1.6617	2.95678	0.378417	1.39599	
934	9.33012	2.84204	0.682966	1.67755	2.95817	0.38121	1.38616	
935	9.34012	2.84297	0.667154	1.69559	2.96098	0.386241	1.36634	
936	9.35012	2.84411	0.648385	1.71571	2.96245	0.38832	1.35626	
937	9.36012	2.8458	0.62828	1.73788	2.96419	0.390125	1.34606	
938	9.37012	2.847	0.618071	1.74955	2.96624	0.391816	1.33576	
